<svg width="466" height="376" viewBox="0 0 576 486" fill="none" xmlns="http://www.w3.org/2000/svg">
<g clip-path="url(#clip0)" filter="url(#filter0_d)">
<path d="M296.443 14V464C357.8 438.751 410.036 395.44 446.224 339.809C522.37 222.67 500.027 95.65 495.397 71.4158C457.876 72.9233 420.377 67.939 384.551 56.6825C353.253 46.8428 323.568 32.4622 296.443 14V14Z" fill="#345452"/>
<path d="M208.561 57.398C239.48 47.681 268.828 33.5392 295.694 15.4143V462.878C234.925 437.628 183.193 394.59 147.292 339.401C71.952 223.501 93.2362 97.8834 98.1829 72.1903C135.549 73.6107 172.883 68.6079 208.561 57.398L208.336 56.6825L208.561 57.398Z" fill="#F0F9F6" stroke="#F1F0F0" stroke-width="1.5"/>
<path d="M296.83 328.931C298.339 326.433 299.888 323.949 301.343 321.411C307.178 311.219 312.973 300.986 318.808 290.794C323.775 282.112 328.795 273.429 333.762 264.773C339.103 255.422 344.444 246.072 349.784 236.721C352.762 231.485 355.846 226.235 358.917 220.892C359.071 220.552 359.328 220.269 359.651 220.082C359.974 219.895 360.348 219.814 360.72 219.85C380.961 219.85 401.198 219.85 421.431 219.85C422.459 219.85 423.474 219.93 424.742 219.984C422.993 223.069 421.378 225.955 419.722 228.84C411.853 242.545 403.989 256.255 396.129 269.969L370.346 315.026C364.632 325.026 358.904 335.031 353.162 345.041C347.381 355.113 341.559 365.158 335.805 375.243C333.455 379.344 331.305 383.565 328.862 387.599C324.97 394.392 319.582 400.208 313.106 404.604C307.353 408.516 300.418 410.301 293.492 409.653C285.233 408.911 277.579 405.006 272.129 398.753C268.617 395.128 265.889 390.817 264.118 386.09C264.336 385.873 264.532 385.636 264.705 385.382C269.846 376.485 275 367.602 280.087 358.666C285.655 348.794 291.222 338.856 296.83 328.931Z" fill="#53B17E"/>
<path d="M296.83 328.93C291.222 338.855 285.654 348.793 280.006 358.692C274.919 367.601 269.765 376.484 264.625 385.408C264.452 385.662 264.255 385.899 264.037 386.115C261.287 381.4 258.483 376.765 255.773 371.983C240.284 344.982 224.818 317.986 209.374 290.994C206.464 285.918 203.58 280.828 200.575 275.552C201.256 275.552 201.777 275.458 202.298 275.458C222.771 275.458 243.28 275.458 263.824 275.458C264.493 275.401 265.163 275.548 265.747 275.879C266.331 276.211 266.801 276.711 267.095 277.315C274.572 290.406 282.103 303.47 289.58 316.561C291.783 320.408 293.893 324.295 296.056 328.142C296.275 328.44 296.536 328.705 296.83 328.93V328.93Z" fill="#71BE93"/>
</g>
<g filter="url(#filter1_d)">
<path d="M560 103.108H450.245H219.119H24L62.7627 140.16L24 177.069H219.119H450.245H560L521.237 140.16L560 103.108Z" fill="#393939"/>
<path fill-rule="evenodd" clip-rule="evenodd" d="M306.877 137.715H321.23V156.216H315.962C315.672 155.209 315.479 154.059 315.382 152.957C313.546 155.449 310.308 156.791 305.669 156.791C296.003 156.791 290.591 149.506 290.591 140.112C290.591 130.191 296.438 122.714 306.925 122.714C315.479 122.714 320.553 127.507 321.326 133.114H314.126C313.449 130.91 311.709 128.274 306.828 128.274C299.966 128.274 298.033 133.977 298.033 139.776C298.033 145.48 300.256 151.087 306.877 151.087C313.014 151.087 314.174 146.822 314.174 143.898V143.563H306.877V137.715ZM166.179 123.192V156.215H173.38V123.192H166.179ZM193.12 142.987C198.484 142.987 199.403 144.712 199.403 148.307V148.786C199.403 152.285 199.499 154.777 200.079 156.215H206.942C206.458 154.681 206.458 152.141 206.458 149.936V148.307C206.458 142.364 203.945 140.686 202.302 140.063C204.719 139.057 207.135 136.66 207.135 132.251C207.135 127.122 203.22 123.192 195.972 123.192H181.329V156.215H188.384V142.987H193.12ZM194.57 128.848H188.384V137.283H194.425C198.34 137.283 199.887 135.797 199.887 133.065C199.887 130.381 198.098 128.848 194.57 128.848ZM212.891 123.192V142.651C212.891 153.675 219.367 156.694 226.906 156.694C234.251 156.694 240.92 153.819 240.92 142.507V123.192H233.671V142.843C233.671 148.882 231.11 151.087 227.002 151.087C223.378 151.087 220.092 149.217 220.092 142.843V123.192H212.891ZM255.54 156.215H248.485V123.192H271.73V129.04H255.54V137.14H270.715V142.987H255.54V156.215ZM277.085 123.192V156.215H284.286V123.192H277.085ZM328.525 156.215H335.726V141.932H349.16V156.215H356.361V123.192H349.16V136.037H335.726V123.192H328.525V156.215ZM378.638 156.215H371.438V129.04H361.289V123.192H388.739V129.04H378.638V156.215ZM416.135 136.085H400.188V129.04H416.812V123.192H393.181V156.215H416.909L417.779 150.368H400.188V141.98H416.135V136.085ZM440.986 148.307C440.986 144.712 440.068 142.987 434.703 142.987H429.967V156.215H422.912V123.192H437.555C444.804 123.192 448.718 127.122 448.718 132.251C448.718 136.66 446.302 139.057 443.885 140.063C445.528 140.686 448.041 142.364 448.041 148.307V149.936C448.041 152.141 448.041 154.681 448.525 156.215H441.662C441.082 154.777 440.986 152.285 440.986 148.786V148.307ZM429.967 128.848H436.154C439.682 128.848 441.47 130.381 441.47 133.065C441.47 135.797 439.923 137.283 436.009 137.283H429.967V128.848ZM466.785 156.695C458.328 156.695 453.834 152.573 453.061 146.534H460.31C461.083 149.841 463.451 151.327 467.317 151.327C471.183 151.327 472.826 149.793 472.826 147.397C472.826 144.665 471.231 143.515 465.529 142.221C456.444 140.112 454.221 136.805 454.221 132.347C454.221 126.596 458.57 122.714 466.447 122.714C475.291 122.714 478.819 127.411 479.302 132.252H472.053C471.666 130.191 470.555 127.986 466.254 127.986C463.306 127.986 461.566 129.184 461.566 131.533C461.566 133.833 462.968 134.792 468.38 135.99C478.045 138.291 480.172 141.837 480.172 146.534C480.172 152.525 475.581 156.695 466.785 156.695Z" fill="white"/>
<path d="M140.799 112.911L131.735 129.01L122.672 145.109L118.142 153.093L113.61 161.079C113.61 161.079 116.128 167.775 122.924 167.775C128.841 167.775 132.239 161.079 132.239 161.079L150.49 129.01L159.553 112.911H140.799Z" fill="#53B17E"/>
<path d="M114.084 129.032L132.322 160.383H123.015H113.582L95.3438 129.032H114.084Z" fill="#53B17E"/>
</g>
<defs>
<filter id="filter0_d" x="68.8845" y="0" width="447.118" height="486" filterUnits="userSpaceOnUse" color-interpolation-filters="sRGB">
<feFlood flood-opacity="0" result="BackgroundImageFix"/>
<feColorMatrix in="SourceAlpha" type="matrix" values="0 0 0 0 0 0 0 0 0 0 0 0 0 0 0 0 0 0 127 0"/>
<feOffset dx="-4" dy="4"/>
<feGaussianBlur stdDeviation="9"/>
<feColorMatrix type="matrix" values="0 0 0 0 0.223529 0 0 0 0 0.223529 0 0 0 0 0.223529 0 0 0 0.3 0"/>
<feBlend mode="normal" in2="BackgroundImageFix" result="effect1_dropShadow"/>
<feBlend mode="normal" in="SourceGraphic" in2="effect1_dropShadow" result="shape"/>
</filter>
<filter id="filter1_d" x="0" y="87.1084" width="576" height="113.96" filterUnits="userSpaceOnUse" color-interpolation-filters="sRGB">
<feFlood flood-opacity="0" result="BackgroundImageFix"/>
<feColorMatrix in="SourceAlpha" type="matrix" values="0 0 0 0 0 0 0 0 0 0 0 0 0 0 0 0 0 0 127 0"/>
<feOffset dx="-4" dy="4"/>
<feGaussianBlur stdDeviation="10"/>
<feColorMatrix type="matrix" values="0 0 0 0 0.223529 0 0 0 0 0.223529 0 0 0 0 0.223529 0 0 0 1 0"/>
<feBlend mode="normal" in2="BackgroundImageFix" result="effect1_dropShadow"/>
<feBlend mode="normal" in="SourceGraphic" in2="effect1_dropShadow" result="shape"/>
</filter>
<clipPath id="clip0">
<rect width="411.118" height="450" fill="white" transform="translate(90.8845 14)"/>
</clipPath>
</defs>
</svg>
